<svg width="7" height="7" viewBox="0 0 7 7" fill="none" xmlns="http://www.w3.org/2000/svg">
<g clip-path="url(#clip0_201_17405)">
<path d="M2.49899 6.1081C2.42535 6.1081 2.35472 6.07885 2.30265 6.02677C2.25058 5.9747 2.22132 5.90407 2.22132 5.83043V4.99742H1.11064C0.963353 4.99742 0.8221 4.93891 0.717954 4.83476C0.613807 4.73062 0.555298 4.58936 0.555298 4.44208V1.11003C0.555298 0.801814 0.805201 0.554688 1.11064 0.554688H5.55337C5.70066 0.554688 5.84191 0.613196 5.94605 0.717343C6.0502 0.82149 6.10871 0.962743 6.10871 1.11003V4.44208C6.10871 4.58936 6.0502 4.73062 5.94605 4.83476C5.84191 4.93891 5.70066 4.99742 5.55337 4.99742H3.85958L2.8322 6.02758C2.77666 6.08033 2.70725 6.1081 2.63783 6.1081H2.49899ZM2.77666 4.44208V5.2973L3.63189 4.44208H5.55337V1.11003H1.11064V4.44208H2.77666ZM1.66598 1.94304H4.99803V2.49838H1.66598V1.94304ZM1.66598 3.05372H4.16502V3.60906H1.66598V3.05372Z" fill="#FBE8E4"/>
</g>
<defs>
<clipPath id="clip0_201_17405">
<rect width="6.6641" height="6.6641" fill="white"/>
</clipPath>
</defs>
</svg>
