<svg width="7" height="7" viewBox="0 0 7 7" fill="none" xmlns="http://www.w3.org/2000/svg">
<g clip-path="url(#clip0_201_25587)">
<path d="M1.11072 0.555664V2.22169H0.555381V0.555664H1.11072ZM0.555381 6.10908V4.44305H1.11072V6.10908H0.555381ZM1.38839 3.33237C1.38839 3.64058 1.14127 3.88771 0.833051 3.88771C0.527614 3.88771 0.27771 3.64058 0.27771 3.33237C0.27771 3.02693 0.527614 2.77703 0.833051 2.77703C1.14127 2.77703 1.38839 3.02693 1.38839 3.33237ZM4.44277 1.11101C5.67007 1.11101 6.66413 2.10507 6.66413 3.33237C6.66413 4.55967 5.67007 5.55374 4.44277 5.55374C3.44316 5.55374 2.59904 4.89288 2.31859 3.9849L1.66606 3.33237L2.31859 2.67984C2.59904 1.77186 3.44316 1.11101 4.44277 1.11101ZM4.44277 1.66635C3.52368 1.66635 2.77675 2.41328 2.77675 3.33237C2.77675 4.25146 3.52368 4.99839 4.44277 4.99839C5.36186 4.99839 6.10879 4.25146 6.10879 3.33237C6.10879 2.41328 5.36186 1.66635 4.44277 1.66635ZM4.1651 3.61004V2.22169H4.5816V3.3879L5.41462 3.88771L5.18693 4.23758L4.1651 3.61004Z" fill="#FBE8E4"/>
</g>
<defs>
<clipPath id="clip0_201_25587">
<rect width="6.6641" height="6.6641" fill="white"/>
</clipPath>
</defs>
</svg>
