<svg width="7" height="7" viewBox="0 0 7 7" fill="none" xmlns="http://www.w3.org/2000/svg">
<g clip-path="url(#clip0_201_19057)">
<path d="M3.8873 0.555664L5.55333 2.22169V5.55374C5.55333 5.70102 5.49482 5.84227 5.39067 5.94642C5.28652 6.05057 5.14527 6.10908 4.99798 6.10908H1.66594C1.51865 6.10908 1.3774 6.05057 1.27325 5.94642C1.1691 5.84227 1.1106 5.70102 1.1106 5.55374V1.11101C1.1106 0.96372 1.1691 0.822466 1.27325 0.71832C1.3774 0.614173 1.51865 0.555664 1.66594 0.555664H3.8873ZM4.99798 5.55374V2.49936H3.60963V1.11101H1.66594V5.55374H4.99798ZM4.44264 4.99839L3.74847 4.52635V4.99839H2.22128V3.61004H3.74847V4.08208L4.44264 3.61004V4.99839Z" fill="#FBE8E4"/>
</g>
<defs>
<clipPath id="clip0_201_19057">
<rect width="6.6641" height="6.6641" fill="white"/>
</clipPath>
</defs>
</svg>
